<svg version="1.0" xmlns="http://www.w3.org/2000/svg" width="346.667" height="346.667" viewBox="0 0 260 260"><path d="M232.5 69.5c-.5.2-3.6 1.1-6.7 2-5.7 1.5-5.8 1.6-5.3 4.8.5 3.1 1.1 9.8 1.9 20.2.3 2.7.8 8.4 1.2 12.5 1.4 14.2.6 17.8-4.6 20.5-6.3 3.3-10.7.9-11.7-6.4-.7-4.8-1-4.9-10.3-2.1l-6.8 2 .5 4.8c.7 7.5.7 7.6 3 11.4 3.3 5.6 6.6 7.2 14.2 7.2 12.9 0 25.6-6.7 30.3-15.8 2.9-5.5 2.9-15.7.2-41.6-1-9.6-1.2-12.1-1.3-16.3-.1-3.6-1.2-4.4-4.6-3.2zm-55.8 15.2c-.2.1-5.4 1.6-11.7 3.2-6.3 1.7-13.7 3.8-16.5 4.6-2.7.8-6.9 1.9-9.3 2.5-4.2 1.1-4.2 1.1-3.7 4.9.2 2.1.7 7.4 1 11.7.3 4.4.8 9 1 10.4.2 1.4.6 6.1 1 10.5.3 4.4.8 9.6 1 11.5.2 1.9.7 7.1 1 11.5.4 4.3.8 8.2 1 8.5.2.4 10.4-2.1 22.7-5.4l22.3-6.1-.1-4c-.4-12.4-.1-11.5-2.9-10.5-1.4.5-3.6 1.2-4.8 1.4-1.2.2-6.4 1.6-11.6 3.1-10.1 2.9-11 2.7-11.2-2.5 0-1.4-.2-3.3-.4-4.3-.2-1.2.5-1.9 2.3-2.3 7.9-1.8 21.4-6 21.3-6.7-.1-.4-.1-3.1-.1-6 0-8.3-.1-8.3-12.9-4.7-6.2 1.8-11.4 3.1-11.6 2.9-.1-.2-.6-3.1-1-6.5l-.6-6 14.5-3.9 14.5-3.9-.3-5c-.2-2.8-.4-6.1-.5-7.3-.1-1.5-.7-2.1-2.1-2-1.2.1-2.2.2-2.3.4zm-58.2 15.8c-.5.2-3.6 1.1-6.8 2l-5.9 1.6.7 7.2c.3 4 .8 9.9 1.1 13.2.3 3.3.7 7.5.9 9.2.3 1.8.2 3.3-.3 3.3-.4 0-4.7-6.1-9.6-13.6-4.9-7.4-9.3-13.7-9.7-14-.5-.3-4.5.5-9 1.7l-8.1 2.3.7 8c.3 4.5.8 9.2.9 10.6.2 1.4.7 6.5 1 11.5.4 4.9.9 10.6 1.1 12.5.2 1.9.7 6.4 1 10 1.3 15.5 1.5 16.1 3.8 15.4 2.3-.7 7.4-2.1 11.6-3.1 2.3-.6 2.3-.7 1.7-9.2-.9-11.4-1.6-18.9-2.1-22.9-.3-1.7-.1-3.2.4-3.2s5.1 6.5 10.3 14.5c7 10.9 9.8 14.5 11.4 14.5 1.1 0 5-.9 8.7-2.1 5.3-1.7 6.5-2.4 6.2-3.9-.2-1-.6-5-1-8.7-.3-3.7-.8-8.6-1-10.8-1.2-12.4-3.8-42.2-3.9-44.8 0-1.6-1.6-2.1-4.1-1.2zm-80 21.2c-7.2 1.5-15.6 5.8-19.8 10.2-6.2 6.6-7.9 14.3-6.3 30.1 1.9 19.8 1.9 20 4.6 24.9 3.3 5.7 7.1 7.5 15.7 7.4 3.9 0 7.7-.5 8.5-.9.7-.5 1.8-.9 2.3-1 3.2-.6 10.5-4.6 13.4-7.4 7.1-6.9 8.8-15.9 6.7-36.5-1.7-16.8-3.8-22-10.6-25.5-2.5-1.3-10.7-2.1-14.5-1.3zm5.3 17.3c1.2 1.2 2.2 2.8 2.3 3.8 0 .9.2 2.5.4 3.6.3 1.5 1.7 17.3 1.7 19.6.2 7.4-2.8 11.4-9.4 12.5-7.1 1.2-8.8-2.5-10.2-22.5-.8-10.5.1-13.9 4.4-16.8 4.1-2.7 8-2.8 10.8-.2z"/></svg>