<?xml version="1.0" standalone="no"?>
<!DOCTYPE svg PUBLIC "-//W3C//DTD SVG 20010904//EN"
 "http://www.w3.org/TR/2001/REC-SVG-20010904/DTD/svg10.dtd">
<svg version="1.0" xmlns="http://www.w3.org/2000/svg"
 width="300.000000pt" height="300.000000pt" viewBox="0 0 300.000000 300.000000"
 preserveAspectRatio="xMidYMid meet">
<metadata>
Created by potrace 1.11, written by Peter Selinger 2001-2013
</metadata>
<g transform="translate(0.000000,300.000000) scale(0.100000,-0.100000)"
fill="#000000" stroke="none">
<path d="M0 1500 l0 -1500 1500 0 1500 0 0 1500 0 1500 -1500 0 -1500 0 0
-1500z m2408 644 c4 -36 60 -107 103 -129 15 -8 42 -15 59 -15 l30 0 0 -64 c0
-79 -6 -96 -34 -96 -17 0 -22 -6 -21 -27 0 -22 6 -29 25 -33 23 -5 25 -10 28
-65 4 -86 -3 -107 -33 -99 -23 6 -25 3 -25 -24 0 -26 4 -31 28 -34 26 -3 27
-5 30 -71 3 -73 -7 -97 -39 -97 -15 0 -19 -7 -19 -31 0 -23 4 -30 18 -28 40 4
42 0 42 -68 0 -78 -9 -98 -39 -90 -18 4 -21 1 -21 -28 0 -29 4 -34 28 -37 27
-3 27 -4 27 -78 l0 -75 -30 -2 c-73 -6 -133 -25 -155 -48 -13 -13 -31 -48 -41
-77 l-18 -53 -780 -3 c-664 -2 -781 0 -781 12 0 8 7 17 16 20 9 3 357 6 774 6
l759 0 11 40 c20 76 82 122 180 135 45 5 45 6 45 44 0 35 -3 40 -28 45 -28 6
-28 7 -25 68 3 60 4 63 31 66 25 3 27 7 27 48 0 42 -1 44 -30 44 l-31 0 3 62
c3 57 5 63 28 68 21 5 25 12 26 45 1 35 -2 41 -25 45 -25 5 -26 9 -26 65 0 58
1 60 28 63 25 3 27 7 27 47 0 40 -2 44 -27 47 -27 3 -28 6 -31 66 -2 50 0 62
13 63 8 1 21 2 28 3 7 0 13 19 15 46 3 43 2 45 -25 46 -68 2 -145 72 -159 143
l-6 31 -883 0 -882 0 -11 -38 c-21 -68 -137 -159 -174 -136 -5 3 -8 -15 -6
-42 3 -42 6 -49 28 -54 28 -6 36 -38 25 -97 -5 -27 -11 -33 -30 -33 -23 0 -25
-4 -25 -45 0 -43 1 -45 30 -45 29 0 30 -1 30 -49 0 -65 -7 -81 -36 -81 -22 0
-24 -4 -24 -44 0 -41 2 -45 28 -48 24 -3 27 -8 30 -42 5 -61 -4 -86 -33 -86
-23 0 -25 -4 -25 -44 0 -41 2 -45 28 -48 26 -3 27 -5 27 -68 0 -64 0 -65 -27
-65 -26 1 -28 -2 -28 -41 l0 -43 48 -6 c103 -12 172 -71 186 -156 10 -61 -9
-70 -23 -12 -20 78 -76 122 -169 132 l-57 6 0 75 c0 74 0 75 28 78 23 3 27 8
27 37 0 29 -3 32 -21 28 -30 -8 -39 12 -39 90 0 46 4 67 13 68 6 1 19 2 27 3
8 0 16 13 18 28 3 23 -1 27 -25 30 -28 3 -28 4 -31 81 l-3 77 31 6 c25 5 30
11 30 35 0 23 -5 28 -27 31 -28 3 -28 4 -28 78 0 70 1 75 23 78 17 3 22 10 22
33 0 24 -4 29 -25 29 -24 0 -25 3 -26 60 -1 33 -2 68 -3 77 -1 13 10 19 43 25
72 12 121 53 141 118 7 19 13 41 15 48 4 10 189 12 902 10 l898 -3 3 -31z
m-178 -180 c69 -39 115 -97 129 -164 7 -30 11 -167 11 -334 0 -337 -3 -351
-90 -437 -40 -39 -70 -59 -101 -68 -33 -9 -208 -11 -700 -9 l-656 3 -48 30
c-53 33 -110 107 -124 163 -15 58 -19 312 -4 312 8 0 12 -43 15 -148 l3 -148
34 -52 c46 -72 105 -111 186 -123 40 -7 296 -9 667 -7 l603 3 47 23 c56 28 93
68 125 139 24 53 24 54 21 345 -3 280 -4 295 -25 334 -12 23 -40 56 -62 73
-82 65 -50 63 -755 63 -631 0 -642 -1 -698 -22 -103 -38 -148 -122 -148 -277
0 -49 -4 -83 -10 -83 -15 0 -12 198 4 243 28 77 107 148 189 168 18 4 325 7
682 6 l650 -2 55 -31z m-1308 -501 c-1 -241 -6 -383 -12 -383 -11 0 -14 762
-3 774 4 3 9 3 12 -1 3 -5 5 -180 3 -390z m1206 1 c-2 -208 -6 -378 -11 -377
-5 2 -11 609 -7 768 0 5 4 5 10 -1 7 -7 9 -143 8 -390z m-873 232 c18 -8 38
-23 44 -34 7 -13 11 -87 11 -188 0 -158 -1 -170 -22 -201 -22 -32 -48 -44 -48
-22 0 6 12 25 26 42 25 30 25 31 22 184 -3 151 -4 155 -28 173 -14 11 -41 20
-62 20 -62 0 -68 -19 -68 -200 0 -138 3 -158 20 -180 11 -14 20 -31 20 -37 0
-24 -26 -13 -45 20 -17 27 -20 54 -23 172 -4 176 3 213 47 242 39 27 59 28
106 9z m243 -11 c1 -11 24 -111 49 -222 40 -174 49 -203 65 -203 17 0 18 13
18 220 0 184 2 220 14 220 12 0 15 -36 16 -215 1 -261 0 -267 -48 -263 l-36 3
-50 222 c-48 209 -52 223 -73 223 l-23 0 0 -220 c0 -140 -4 -220 -10 -220 -12
0 -14 462 -3 474 4 4 23 6 43 4 26 -2 36 -8 38 -23z m442 21 c0 -29 -16 -36
-86 -36 l-74 0 0 -205 0 -205 80 0 c44 0 80 -2 80 -4 0 -30 -15 -36 -95 -36
-66 0 -84 3 -89 16 -8 21 -8 459 1 467 7 7 183 10 183 3z m-30 -241 c0 -16
-55 -22 -64 -6 -8 13 5 21 36 21 18 0 28 -5 28 -15z"/>
</g>
</svg>
