<?xml version="1.0" standalone="no"?>
<!DOCTYPE svg PUBLIC "-//W3C//DTD SVG 20010904//EN"
 "http://www.w3.org/TR/2001/REC-SVG-20010904/DTD/svg10.dtd">
<svg version="1.0" xmlns="http://www.w3.org/2000/svg"
 width="261.000000pt" height="261.000000pt" viewBox="0 0 261.000000 261.000000"
 preserveAspectRatio="xMidYMid meet">
<metadata>
Created by potrace 1.11, written by Peter Selinger 2001-2013
</metadata>
<g transform="translate(0.000000,261.000000) scale(0.100000,-0.100000)"
fill="#000000" stroke="none">
<path d="M2091 1851 c-12 -8 -10 -37 12 -198 28 -196 34 -267 16 -205 -15 51
-25 30 -19 -40 3 -35 3 -81 0 -102 -4 -35 -7 -37 -18 -23 -8 9 -16 34 -19 56
-4 28 -12 42 -31 52 -20 11 -26 12 -30 1 -3 -9 -7 -10 -17 -2 -9 8 -20 4 -43
-15 -29 -24 -47 -71 -32 -80 5 -3 15 -25 23 -50 14 -40 14 -45 1 -45 -25 0
-10 -24 21 -35 16 -5 39 -20 52 -32 25 -25 48 -28 90 -12 15 6 36 12 45 14 32
7 68 40 89 84 20 40 21 53 16 165 -7 119 -25 277 -48 409 -12 67 -28 85 -47
51 -8 -15 -10 -15 -15 0 -7 18 -25 20 -46 7z"/>
<path d="M1555 1680 l-160 -48 4 -48 c2 -27 7 -56 12 -65 4 -9 6 -24 3 -35 -2
-10 8 -93 22 -184 14 -91 28 -191 31 -223 4 -42 10 -60 23 -67 23 -13 30 -10
225 80 39 18 89 41 113 51 40 17 56 39 30 39 -7 0 -2 7 10 16 25 18 31 71 8
80 -19 7 -106 -18 -230 -67 -111 -44 -113 -44 -113 -24 0 8 4 12 8 9 5 -2 11
18 15 45 5 43 10 50 33 56 51 13 122 48 118 59 -2 6 15 22 37 37 72 45 100 89
58 89 -10 0 -22 4 -28 10 -6 6 -37 -1 -89 -21 -115 -44 -121 -45 -128 -17 -16
56 -11 62 78 97 93 38 102 58 16 35 -78 -20 -74 -11 6 16 88 29 109 43 116 77
6 30 -13 54 -42 52 -9 0 -88 -22 -176 -49z m22 -116 c-3 -3 -12 -4 -19 -1 -8
3 -5 6 6 6 11 1 17 -2 13 -5z m83 -224 c-8 -5 -19 -10 -25 -10 -5 0 -3 5 5 10
8 5 20 10 25 10 6 0 3 -5 -5 -10z"/>
<path d="M1211 1573 l-24 -5 7 -116 c4 -65 10 -148 13 -186 l6 -69 -20 20
c-11 11 -62 75 -113 141 -83 109 -120 143 -120 112 0 -6 -13 -4 -30 5 -24 12
-34 13 -57 3 -15 -7 -31 -17 -35 -22 -10 -14 1 -250 17 -356 20 -136 41 -200
65 -200 10 0 22 -4 25 -10 9 -15 35 -12 35 4 0 8 10 22 21 30 21 14 21 18 10
73 -11 58 -41 277 -41 297 0 6 6 4 13 -5 40 -53 74 -94 88 -108 21 -22 121
-150 140 -181 9 -14 19 -37 22 -52 10 -39 45 -40 79 -2 24 27 26 36 23 90 -4
57 -4 58 5 15 11 -49 15 -56 28 -47 5 3 6 27 1 58 -14 84 -39 355 -39 422 0
34 -4 66 -8 73 -9 14 -75 24 -111 16z"/>
<path d="M545 1391 c-65 -17 -155 -77 -155 -102 0 -6 7 -9 15 -6 11 5 9 -5 -8
-41 -28 -60 -27 -59 -36 -43 -9 14 -39 -73 -61 -173 -17 -77 8 -141 80 -210
66 -63 117 -81 198 -72 68 8 100 24 138 72 66 85 78 113 90 225 13 114 7 166
-18 161 -18 -3 -35 31 -19 36 14 5 14 39 0 48 -6 3 -15 1 -19 -6 -5 -8 -9 -7
-14 5 -3 10 -2 23 3 29 6 7 -1 23 -19 44 -25 30 -34 34 -86 37 -33 2 -72 1
-89 -4z m122 -176 c28 -109 -40 -314 -117 -355 -22 -12 -50 -2 -87 33 -20 18
-23 30 -23 96 0 97 14 149 51 185 16 15 29 33 29 38 0 5 12 20 27 34 21 20 36
24 67 22 39 -3 40 -4 53 -53z m40 -142 c-3 -10 -5 -2 -5 17 0 19 2 27 5 18 2
-10 2 -26 0 -35z"/>
</g>
</svg>
